<?xml version="1.0" standalone="no"?>
<!DOCTYPE svg PUBLIC "-//W3C//DTD SVG 20010904//EN"
 "http://www.w3.org/TR/2001/REC-SVG-20010904/DTD/svg10.dtd">
<svg version="1.0" xmlns="http://www.w3.org/2000/svg"
 width="156.000000pt" height="32.000000pt" viewBox="0 0 156.000000 32.000000"
 preserveAspectRatio="xMidYMid meet">

<g transform="translate(0.000000,32.000000) scale(0.100000,-0.100000)"
fill="#000000" stroke="none">
<path d="M187 208 c-9 -40 -19 -92 -22 -115 l-7 -43 80 0 c74 0 82 2 110 28
34 31 58 98 49 134 -4 13 -16 33 -27 46 -18 19 -31 22 -94 22 l-74 0 -15 -72z
m121 10 c33 -33 -4 -124 -46 -116 -13 3 -16 12 -13 43 6 75 29 103 59 73z"/>
<path d="M506 253 c-3 -16 -10 -57 -16 -93 -6 -36 -14 -75 -17 -88 -5 -22 -3
-23 33 -20 31 2 40 7 42 24 4 26 37 58 50 50 5 -3 13 -22 16 -41 7 -34 8 -35
51 -35 25 0 45 4 45 10 0 5 -11 34 -25 64 -14 30 -25 59 -25 64 0 4 18 24 40
42 22 18 40 37 40 42 0 13 -88 9 -97 -4 -5 -7 -23 -26 -41 -43 l-33 -30 7 43
7 42 -36 0 c-31 0 -36 -4 -41 -27z"/>
<path d="M841 258 c-11 -30 -6 -38 28 -38 15 0 30 -2 33 -5 3 -3 -1 -40 -8
-82 -7 -42 -12 -79 -9 -83 2 -4 17 -5 34 -2 27 4 30 9 45 74 9 39 16 76 16 84
0 8 15 14 38 16 32 3 37 7 40 31 l3 27 -106 0 c-100 0 -106 -1 -114 -22z"/>
<path d="M1176 188 c-9 -51 -20 -103 -23 -115 -5 -23 -4 -23 96 -23 l101 0 0
25 c0 24 -3 25 -60 25 -64 0 -66 1 -49 31 8 15 20 20 47 19 59 -3 62 -1 62 26
0 24 -2 25 -47 23 -37 -3 -48 0 -48 11 0 11 16 16 60 20 53 4 60 8 63 28 3 21
1 22 -90 22 l-94 0 -18 -92z"/>
</g>
</svg>
